# xmcd
#
# Track frame offsets:
#	225
#	9976
#	22868
#	31758
#	38335
#	48953
#	63282
#	77658
#	89275
#	101375
#
# Disc length: 1572
#
# Revision: 1
# Processed by: cddbd v1.5.1PL0 Copyright (c) Steve Scherf et al.
# Submitted via: MusicManager v6.0.0.0
# Normalized: r0:DSETVAR1
#
DISCID=5b06210a
DTITLE=Various Artist - Louisiana Hayride Classic Country Radio Vol. 2
DYEAR=1900
DGENRE=country
TTITLE0=Jim Reeves - Red Eyed and Rowdy
TTITLE1=Faron Young - Anything Your Heart Desires
TTITLE2=Marty Robbins - I Can't Quit You (I've Gone Too Far)
TTITLE3=Loretta Lynn - Mind Your Own Business
TTITLE4=Red Sovine - I Hope You Don't Care
TTITLE5=Johnny Cash - Rock Island Line (live)
TTITLE6=T. Texas Tyler - Courtin' in the Rain
TTITLE7=Johnny Horton - Honky Tonk Man (live)
TTITLE8=George Jones - She Thinks I Still Care (live)
TTITLE9=Charlie Walker - Pick me Up on Your Way Down (live)
EXTD=
EXTT0=
EXTT1=
EXTT2=
EXTT3=
EXTT4=
EXTT5=
EXTT6=
EXTT7=
EXTT8=
EXTT9=
PLAYORDER=
